<svg xmlns="http://www.w3.org/2000/svg" viewBox="0 0 197.29 215.19"><defs><style>.cls-1{fill:#22eaaa;}.cls-2{fill:#9ef4e6;}.cls-3{fill:#439ee9;}</style></defs><title>Asset 1sr2</title><g id="Layer_2" data-name="Layer 2"><g id="BACKGROUND_2" data-name="BACKGROUND 2"><path class="cls-1" d="M71.73,56.19A7.6,7.6,0,0,0,81.79,44.83L63,26c-6.74-6.74-9.37-12.71-10.2-17.29-8,8.24-9.89,17.28-2.48,26Z"/><path class="cls-2" d="M183,187.29l-9.55,9.56,7.89,7.89a6.76,6.76,0,1,0,9.56-9.55Z"/><path class="cls-2" d="M106.26,111.52a6.78,6.78,0,0,0-8.5-.86c-4.09,3.1-3.63,7.85-1.06,10.42l8.39,8.39,9.56-9.56Z"/><path class="cls-3" d="M65.21,23C60.5,18.24,56,12.06,57,5.46c.65-4.54-3.84-7.21-7.59-4.14-8.54,6.93-15.24,16.09-13.85,27a9.64,9.64,0,0,0-7.72,2.79l-14,14A9.91,9.91,0,0,0,2.91,61.19c54.55,54.55,51,51.51,54,52.57l31,10.88c1.46,3-4.4-3.32,85.34,86.42a14,14,0,0,0,10,4.13c12.64,0,18.74-15.28,10-24.06l-54.4-54.4a3.67,3.67,0,0,0-5.19,5.19l41.32,41.32-9.55,9.55-56-56,9.56-9.55,6,6a3.67,3.67,0,1,0,5.19-5.19L110.5,108.47a14.11,14.11,0,0,0-16.28-2.63L65.56,95.78l-6.42-6.42c.19-.18,13.3-13.29,13.5-13.5a9.61,9.61,0,0,0,2.65-8.7A14.93,14.93,0,0,0,84,41.77L65.21,23ZM33,36.25a2.34,2.34,0,0,1,3.3,0l3.24,3.24L24.42,54.64l-4.89-4.89L33,36.25Zm11.68,8.48,4.81,4.8L34.41,64.63l-4.8-4.8,15.1-15.1Zm135.37,143.7,7.89,7.89a6.75,6.75,0,1,1-9.55,9.55l-7.9-7.89ZM96.82,112.79a6.76,6.76,0,0,1,8.49.87l8.39,8.39-9.55,9.55-8.39-8.39C93.18,120.64,92.72,115.9,96.82,112.79Zm-8.57-1.27a14.06,14.06,0,0,0-1.67,4.89c-29.41-10.32-27.66-9.59-28.26-10.19-54.28-54.28-51-50.52-51-52a2.59,2.59,0,0,1,4.41-1.83c53.1,53.11,49.47,49.69,50.59,50.09ZM44.41,74.63,39.6,69.82l15.11-15.1,4.8,4.8Zm23-7.25a2.33,2.33,0,0,1,0,3.3L54,84.18l-4.37-4.37L64.74,64.67l2.72,2.71ZM60,28.13,78.85,47A7.61,7.61,0,0,1,68.78,58.33L47.33,36.88c-7.41-8.76-5.49-17.79,2.49-26C50.65,15.42,53.28,21.39,60,28.13Z"/></g></g></svg>