<svg xmlns="http://www.w3.org/2000/svg" viewBox="0 0 134.5 21"><defs><style>.cls-1{fill:#fbb040;}</style></defs><title>Asset 1underline</title><g id="Layer_2" data-name="Layer 2"><g id="BACKGROUND_2" data-name="BACKGROUND 2"><path class="cls-1" d="M131,21c-7.92,0-12-4.51-15.34-8.14C112.68,9.58,110.33,7,105.5,7s-7.19,2.58-10.17,5.86C92,16.49,87.92,21,80,21s-12-4.51-15.34-8.14C61.68,9.58,59.32,7,54.5,7s-7.19,2.58-10.17,5.86C41,16.49,36.92,21,29,21s-12-4.51-15.34-8.14C10.68,9.58,8.33,7,3.5,7a3.5,3.5,0,0,1,0-7c7.92,0,12,4.52,15.34,8.14C21.82,11.42,24.17,14,29,14s7.18-2.58,10.16-5.86C42.46,4.52,46.58,0,54.5,0s12,4.52,15.33,8.14C72.81,11.42,75.17,14,80,14s7.18-2.58,10.16-5.86C93.46,4.52,97.58,0,105.5,0s12,4.52,15.34,8.14c3,3.28,5.33,5.86,10.16,5.86a3.5,3.5,0,0,1,0,7Z"/></g></g></svg>