<svg xmlns="http://www.w3.org/2000/svg" viewBox="0 0 343.74 343.81"><defs><style>.cls-1{fill:#22eaaa;}.cls-2{fill:#439ee9;}</style></defs><title>Asset 1call_us</title><g id="Layer_2" data-name="Layer 2"><g id="BACKGROUND_2" data-name="BACKGROUND 2"><path class="cls-1" d="M279.51,68.37V30.73h-34V68.37a6.27,6.27,0,0,1-6,6.36h-38v34h38a6.26,6.26,0,0,1,6,6.35v37.65h34V115.08c0-3.33,3.39-6.35,6.73-6.35h37.27v-34H286.24C282.9,74.73,279.51,71.71,279.51,68.37Z"/><path class="cls-2" d="M341.73,279.31l-83.94-83.94a6.84,6.84,0,0,0-9.69,0L216.43,227c-16.1-13.84-33.43-30-51.57-48.16s-34.32-35.47-48.15-51.59l31.66-31.66a6.85,6.85,0,0,0,0-9.68L64.43,2a6.84,6.84,0,0,0-9.69,0L3.4,53.34a7.41,7.41,0,0,0-1,1.34c-1.22,2-6.71,13.65,4.92,41.12,14.77,34.88,50.15,80.47,105.17,135.49C167.68,286.51,213.33,322,248.13,336.65c13.22,5.58,22.74,7.16,29.29,7.16,7.07,0,10.67-1.84,11.73-2.49a6.58,6.58,0,0,0,1.24-1L341.73,289A6.86,6.86,0,0,0,341.73,279.31Zm-60,50.34c-5.28,1.34-45.33,6.19-159.57-108C8.47,107.93,12.81,67.46,14.13,62L59.58,16.53l74.26,74.26-31.28,31.28a6.85,6.85,0,0,0-.4,9.26c15,17.75,32.78,37,53,57.24s39.48,38.07,57.22,53a6.85,6.85,0,0,0,9.26-.4L253,209.9l74.25,74.25Z"/><path class="cls-2" d="M323.57,60.21h-40v-40a6.84,6.84,0,0,0-6.85-6.85H226.59a6.85,6.85,0,0,0-6.85,6.85v40h-40a6.85,6.85,0,0,0-6.85,6.85v50.12a6.85,6.85,0,0,0,6.85,6.85h40v40a6.85,6.85,0,0,0,6.85,6.85h50.12a6.84,6.84,0,0,0,6.85-6.85V124h40a6.85,6.85,0,0,0,6.85-6.85V67.06A6.85,6.85,0,0,0,323.57,60.21Zm-6.85,50.12h-40a6.85,6.85,0,0,0-6.85,6.85v40H233.44v-40a6.85,6.85,0,0,0-6.85-6.85h-40V73.91h40a6.85,6.85,0,0,0,6.85-6.85v-40h36.42v40a6.85,6.85,0,0,0,6.85,6.85h40Z"/><path class="cls-1" d="M104.79,73.23l-3.42-3.42a6.85,6.85,0,0,0-9.69,9.69l3.43,3.42a6.85,6.85,0,1,0,9.68-9.69Z"/><path class="cls-1" d="M85.62,54.06,64.38,32.83a6.84,6.84,0,0,0-9.68,9.68L75.93,63.74a6.85,6.85,0,1,0,9.69-9.68Z"/></g></g></svg>