<svg xmlns="http://www.w3.org/2000/svg" viewBox="0 0 598.95 301.45"><defs><style>.cls-1{fill:#22eaaa;}.cls-2{fill:#9ef4e6;}.cls-3{fill:#439ee9;}</style></defs><title>Asset 1sr3</title><g id="Layer_2" data-name="Layer 2"><g id="BACKGROUND_2" data-name="BACKGROUND 2"><path class="cls-1" d="M135.35,207.88a10.44,10.44,0,0,0-10.26,8.61,8.59,8.59,0,0,1,0,3.64,10.43,10.43,0,1,0,10.26-12.25Z"/><path class="cls-1" d="M313.32,218.31a10.43,10.43,0,1,0-10.43,10.43A10.44,10.44,0,0,0,313.32,218.31Z"/><path class="cls-1" d="M480.75,218.31a10.43,10.43,0,1,0-10.43,10.43A10.44,10.44,0,0,0,480.75,218.31Z"/><path class="cls-2" d="M540.2.13H98.45C65.74.13,39,27,39,59.76v51.61A59,59,0,0,0,60,156.67c10.21-102.94,136-128.13,175.64-32.18,33.57-80.86,134.82-79.2,167.44-.52,39.33-94.09,165-71.37,175.11,32.7A58.68,58.68,0,0,0,599,111.36V59.75C599,27,572.91.13,540.2.13Z"/><path class="cls-3" d="M518.51,0h-47a8.72,8.72,0,0,0,0,17.44h47a59.39,59.39,0,0,1,59.33,59.32v51.61a58.94,58.94,0,0,1-21,45.31C546.7,69.61,420.79,46.89,381.46,141,348.84,62.3,247.61,60.64,214,141.5,174.42,45.55,48.65,70.74,38.44,173.68a58.91,58.91,0,0,1-21-45.3V76.77A59.39,59.39,0,0,1,76.76,17.44H441.65a8.72,8.72,0,1,0,0-17.44H76.76A76.86,76.86,0,0,0,0,76.77v51.61a76.28,76.28,0,0,0,37.89,66.19v16H33.22a8.72,8.72,0,0,0,0,17.44h4.67v21.24c0,28.77,24.51,52.17,54.65,52.17h40.61a8.72,8.72,0,0,0,0-17.44H92.54C72,284,55.33,268.43,55.33,249.28V228h48.31c8.41,25.46,44.52,25.45,52.93,0H205.1v21.24c0,19.15-16.69,34.73-37.21,34.73h-4.51a8.72,8.72,0,0,0,0,17.44h4.51A55.27,55.27,0,0,0,214,277.17a55.3,55.3,0,0,0,46.15,24.28h75.35a55.32,55.32,0,0,0,45.93-23.95,55.32,55.32,0,0,0,45.93,23.95h75.35c30.13,0,54.65-23.4,54.65-52.17V228h4.92a8.72,8.72,0,1,0,0-17.44h-4.92v-16a76.28,76.28,0,0,0,37.89-66.19V76.77A76.86,76.86,0,0,0,518.51,0ZM130.1,229.75a10.44,10.44,0,0,1-10.26-8.61,8.59,8.59,0,0,0,0-3.64,10.43,10.43,0,1,1,10.26,12.25Zm75-19.15H156.57c-8.41-25.47-44.53-25.45-52.93,0H55.33V185.06c0-47.7,33.59-86.5,74.88-86.5s74.89,38.8,74.89,86.5Zm167.64,38.68c0,19.15-16.69,34.73-37.21,34.73H260.18C239.66,284,223,268.43,223,249.28V228h48.2c8.41,25.46,44.53,25.45,52.93,0h48.64v21.24Zm-85.53-30a10.43,10.43,0,1,1,10.43,10.43A10.44,10.44,0,0,1,287.21,219.32Zm85.53-8.72H324.11c-8.42-25.47-44.53-25.45-52.94,0H223V185.06c0-47.7,33.6-86.5,74.89-86.5s74.88,38.8,74.88,86.5ZM540,249.28c0,19.15-16.69,34.73-37.21,34.73H427.39c-20.52,0-37.21-15.58-37.21-34.73V228c.68,0,47.73,0,48.4,0,8.37,25.49,44.53,25.54,52.95,0H540v21.24Zm-85.31-30a10.43,10.43,0,1,1,10.43,10.43A10.44,10.44,0,0,1,454.64,219.32ZM540,210.6H491.54c-8.42-25.47-44.58-25.46-53,0-.67-.07-47.71,0-48.4,0V185.06c0-47.7,33.6-86.5,74.89-86.5,37.51,0,74.88,32.95,74.88,90.81V210.6Z"/></g></g></svg>