<svg xmlns="http://www.w3.org/2000/svg" viewBox="0 0 28.87 28.87"><defs><style>.cls-1{fill:#fff;}.cls-2{fill:#faaf40;}</style></defs><title>Asset 3path-footer</title><g id="Layer_2" data-name="Layer 2"><g id="Layer_1-2" data-name="Layer 1"><rect class="cls-1" width="28.87" height="28.87" rx="6.48" ry="6.48"/><path class="cls-2" d="M20.45,11c-.43-3.09-3.51-4.67-6.8-4.3a5.87,5.87,0,0,0-5.29,5.4c-.07,1.83.45,3.2,2.2,3.59.75-1.34-.24-1.63-.4-2.6-.64-4,4.57-6.66,7.29-3.89,1.89,1.91.65,7.8-2.4,7.19s1.43-5.27-.89-6.19c-1.89-.75-2.9,2.28-2,3.79-.53,2.6-1.66,5-1.2,8.29,1.48-1.07,2-3.14,2.4-5.29a4.29,4.29,0,0,0,2.1,1C19,18.26,20.93,14.48,20.45,11Z"/></g></g></svg>