<svg xmlns="http://www.w3.org/2000/svg" viewBox="0 0 242.95 242.82"><defs><style>.cls-1{fill:#9ef4e6;}.cls-2{fill:#439ee9;}</style></defs><title>Asset 1opening</title><g id="Layer_2" data-name="Layer 2"><g id="BACKGROUND_2" data-name="BACKGROUND 2"><path class="cls-1" d="M183.94,33.29a104.67,104.67,0,0,0-53.53-14.35A103.82,103.82,0,0,0,77,33.29,106.59,106.59,0,0,0,38.1,72.21a104.37,104.37,0,0,0-14.22,53.4,104.55,104.55,0,0,0,8.37,41.58A107.94,107.94,0,0,0,55,201.33,108.76,108.76,0,0,0,89,224a102.91,102.91,0,0,0,41.44,8.5,104.66,104.66,0,0,0,53.53-14.34A106.66,106.66,0,0,0,223,179.28a104.87,104.87,0,0,0,14.34-53.67A103.88,103.88,0,0,0,223,72.21,107,107,0,0,0,183.94,33.29Zm-8.63,139.08a7.55,7.55,0,0,1-10.23,0l-39.72-39.72a7,7,0,0,1-2.07-6c0-.39-.35-.93-.35-1.06V55.74a7.48,7.48,0,0,1,7.3-7.44,7.65,7.65,0,0,1,7.7,7.44v68.81L175.22,162A7.16,7.16,0,0,1,175.31,172.37Z"/><path class="cls-2" d="M233.26,74.12C220.45,44.26,198.68,22.54,168.57,9.7a119.81,119.81,0,0,0-94.45,0C44.26,22.51,22.4,44.21,9.56,74.12a121.42,121.42,0,0,0,0,94.45c12.84,29.91,34.7,51.74,64.56,64.56a118.2,118.2,0,0,0,47.16,9.69,119.55,119.55,0,0,0,47.29-9.69c30.11-12.85,51.88-34.7,64.69-64.56a119.92,119.92,0,0,0,0-94.45Zm-19.4,100.82a106.49,106.49,0,0,1-39.05,38.92,104.57,104.57,0,0,1-53.53,14.35,103,103,0,0,1-41.45-8.5,108.71,108.71,0,0,1-34-22.71,107.94,107.94,0,0,1-22.71-34.14,104.55,104.55,0,0,1-8.37-41.58A104.46,104.46,0,0,1,29,67.88,106.59,106.59,0,0,1,67.88,29a103.79,103.79,0,0,1,53.4-14.35A104.6,104.6,0,0,1,174.81,29a106.86,106.86,0,0,1,39.05,38.92,103.79,103.79,0,0,1,14.35,53.4A104.72,104.72,0,0,1,213.86,174.94Z"/><path class="cls-2" d="M129,120.21V51.41a7.66,7.66,0,0,0-7.7-7.44A7.49,7.49,0,0,0,114,51.41v69.87a5.81,5.81,0,0,1,.27,1.06,7,7,0,0,0,2,6L156,168a7.58,7.58,0,0,0,10.23,0,7.18,7.18,0,0,0,0-10.37Z"/></g></g></svg>