<svg xmlns="http://www.w3.org/2000/svg" viewBox="0 0 258.08 295.8"><defs><style>.cls-1{fill:#22eaaa;}.cls-2{fill:#439ee9;}</style></defs><title>Asset 1sr5</title><g id="Layer_2" data-name="Layer 2"><g id="BACKGROUND_2" data-name="BACKGROUND 2"><path class="cls-1" d="M197.68,50.71c-11.45-7.87-32.25-7.49-45.13,3.58-11.14,9.95-22.8,9.27-32.62.84,0,0-1-1-1.77-1.57C105.56,43.24,85.07,43,73.88,50.71c-19.36,14.49-25.41,42.5-14.27,68.2a69,69,0,0,0,25.74,30.6c5.09,2.53.49,4.46,1.9,31.94,8-24.09,23-45.25,48.53-45.25s40.54,21.15,48.53,45.25a165.51,165.51,0,0,0-.65-27.47,4.33,4.33,0,0,1,2.51-4.46c1.26-.55,10.62-7,17.94-17,1.24-1.69,6.06-9.83,6.83-11.45C222.76,96.25,218.65,66.41,197.68,50.71Z"/><path class="cls-2" d="M246.29,42.74a4.34,4.34,0,0,0-7.64,4.1c23.66,44.06,6.88,105.89-35.82,135.49a4.34,4.34,0,0,0-1.83,4.11c6.43,49.61-11.77,91.83-22.92,99.61-.47.33-2.05,1.36-2.84.95-.18-.1-4.44-2.53-4.44-21.15,0-24.3-5.63-50.65-28.6-58.28-18.38-5.85-54.78-3.56-54.78,58.28,0,18.62-4.25,21-4.43,21.15-.79.41-2.38-.62-2.84-.95-11.16-7.78-29.35-50-22.93-99.61a4.32,4.32,0,0,0-1.83-4.11C22.87,159.78,3.87,117.26,10,75.83c9.2-59.1,66.65-85.94,116.7-52.74a4.34,4.34,0,0,0,4.79,0C166.84-.34,207.57,5.67,231,35.11a4.33,4.33,0,1,0,6.79-5.39c-24.93-31.38-69-40.17-108.64-15.39C74.31-19.95,11.51,10.1,1.46,74.44-5,110.22,9.85,159.86,48.31,187.93,41.69,246.51,68,304.61,87,294.68c13.89-7.24,5-35.31,13.59-59.77C111.34,205,162.14,200,162.14,265.85c0,16.21,3,25.64,9.09,28.83,19,9.9,45.32-48,38.68-106.76C254.8,155.17,271.54,89.77,246.29,42.74Z"/><path class="cls-2" d="M206.36,131.16a4.32,4.32,0,0,0,5.77-2c20.21-42.5-3.64-87.78-38.76-88.14-11.58-.3-23.29,2.86-32.14,10.19-.21.18-1.73,1.49-1.87,1.65-11,9.43-18.58,1.33-23.33-2.47C107.58,43.76,97.3,41,86.6,40.94h-.1C76,40.9,67.49,44,62.12,48c-11.85,8.84-19.81,22.26-22.43,37.8a51.26,51.26,0,0,0-.93,10.53A73.84,73.84,0,0,0,45,126.63,77.63,77.63,0,0,0,72.36,160c-2.14,21.93,1.46,49.55,2.56,53.26a4.33,4.33,0,0,0,8.46-.76c.07-.64,7.13-63.32,45.76-63.32s45.69,62.69,45.76,63.32a4.34,4.34,0,0,0,8.46.77c.91-3.07,4.8-30.33,2.56-53.27a76.79,76.79,0,0,0,18.53-18,4.33,4.33,0,1,0-7-5.13c-7.32,10-16.68,16.4-17.94,16.95a4.33,4.33,0,0,0-2.51,4.47,165.49,165.49,0,0,1,.65,27.47c-8-24.11-23-45.26-48.53-45.26s-40.55,21.16-48.53,45.26c-1.41-27.49,3.19-29.42-1.9-31.95A69,69,0,0,1,53,123.18C41.83,97.48,47.88,69.48,67.24,55c11.19-7.7,31.68-7.46,44.28,2.85.74.62,1.77,1.57,1.77,1.57,9.82,8.43,21.48,9.11,32.62-.83C158.79,47.5,179.59,47.11,191,55c21,15.7,25.08,45.54,13.26,70.41A4.34,4.34,0,0,0,206.36,131.16Z"/></g></g></svg>