<svg xmlns="http://www.w3.org/2000/svg" viewBox="0 0 245.33 227.07"><defs><style>.cls-1{fill:#9ef4e6;}.cls-2{fill:#439ee9;}</style></defs><title>Asset 1sr6</title><g id="Layer_2" data-name="Layer 2"><g id="BACKGROUND_2" data-name="BACKGROUND 2"><path class="cls-1" d="M122.31,59.85a41.58,41.58,0,1,0,41.58-41.58A41.62,41.62,0,0,0,122.31,59.85Z"/><path class="cls-2" d="M108.82,63.66a48.77,48.77,0,1,0,48.77-48.77A48.83,48.83,0,0,0,108.82,63.66Zm90.34,0a41.58,41.58,0,1,1-41.57-41.58A41.62,41.62,0,0,1,199.16,63.66Z"/><path class="cls-2" d="M242.38,132,228.3,117.9a3.6,3.6,0,1,0-5.09,5.09c15.23,15.22,14.92,14.51,14.92,16.09s-.74,1.93-3.11,4.29a2.83,2.83,0,0,1-4,0l-31.69-31.68a65.72,65.72,0,0,0,6.3-6.3l9.49,9.49a3.6,3.6,0,0,0,5.09-5.09L210.05,99.66A63.58,63.58,0,0,0,198.64,15,3.59,3.59,0,1,0,194,20.53c40.72,34.45,14.86,99.59-36.41,99.59a56.51,56.51,0,0,1-55.92-64.33C107.13,17,149.82-4.67,184.28,13.91a3.6,3.6,0,0,0,3.41-6.33,63.6,63.6,0,0,0-83.43,21.35,64.87,64.87,0,0,0-16.94,7.42c-16.43-10.14-36-12.73-53.43-5C-10.67,51.19-11.37,122,32.28,154.16c-3.43,31.1,6.6,58.3,15,67.92,6.85,7.8,14.57,6.41,17.27-3.93,1.81-7.08.7-12,1.69-21.11,2.39-21.13,14.24-27.76,27.56-23.88,5.49,1.56,11.28,6.74,13.74,18.94a82.73,82.73,0,0,1,1.27,16.17c.77,30.19,23.33,23.92,31.84-18.15a3.59,3.59,0,0,0-7-1.42c-4.2,20.75-12.51,31.09-15,31.14-1-.44-1.77-3.85-2-5.08-1.43-8,.68-18.2-4-31.53-9.12-26.15-52.14-28.51-53.93,19.07-.19,3.95.19,9.63-1.18,14.54-.62,2.16-1.32,2.91-1.49,3-5.07,0-21.2-29.49-16.36-66.89a3.6,3.6,0,0,0-1.51-3.42C-1.7,121.9-3.26,58,34.87,38.87c14.51-7.42,33.38-6.6,50.46,4.74,3.15,2.09,4.15-1.23,13.89-5.36C81,80,111.54,126.76,156.89,127.31a70.47,70.47,0,0,1-20.41,22.21c-3.72,2.59,1,6.43-1.19,28.38a3.59,3.59,0,1,0,7.15.72,116.23,116.23,0,0,0-.09-24.46,78.7,78.7,0,0,0,23-27.33,63.1,63.1,0,0,0,28.23-10.71l32.33,32.33a9.93,9.93,0,0,0,7.09,2.94c4.71,0,6.87-2.71,9.38-5.21A10,10,0,0,0,242.38,132Z"/><path class="cls-1" d="M38.56,41.58C1.62,60.16,3,121.87,41.3,148.91a3.76,3.76,0,0,1-.2-.46C9.21,117.71,10.61,60.94,46.43,42.92A45.73,45.73,0,0,1,68.8,38.05,44.93,44.93,0,0,0,38.56,41.58Z"/></g></g></svg>