<svg xmlns="http://www.w3.org/2000/svg" viewBox="0 0 81.38 57.4"><defs><style>.cls-1{fill:#7ed2ff;}.cls-2{fill:#439ee9;}.cls-3{fill:#fff;}.cls-4{fill:#22eaaa;}</style></defs><title>Asset 1iconComent</title><g id="Layer_2" data-name="Layer 2"><g id="BACKGROUND_2" data-name="BACKGROUND 2"><path class="cls-1" d="M56,1.72A19.76,19.76,0,0,1,70.8,34.56L78,41.65a26.62,26.62,0,0,1-15.78-1.42A19.76,19.76,0,1,1,56,1.72Z"/><path class="cls-2" d="M72.42,44a27.89,27.89,0,0,1-10.25-1.91,21.5,21.5,0,1,1,11-7.62l8.26,8.09-2.92.78A25.85,25.85,0,0,1,72.42,44Zm-10.1-5.58.6.26a24.83,24.83,0,0,0,11.43,1.81l-5.92-5.81,1.08-1.22A18,18,0,1,0,56,39.53a18.21,18.21,0,0,0,5.71-.93Z"/><path class="cls-3" d="M29.13,8.28A23.1,23.1,0,0,0,11.81,46.69L3.36,55a31.12,31.12,0,0,0,18.45-1.65,23.11,23.11,0,1,0,7.32-45Z"/><path class="cls-1" d="M29.13,8.28a24,24,0,0,0-3.91.33,23.11,23.11,0,0,1,0,45.56A23.11,23.11,0,1,0,29.13,8.28Z"/><path class="cls-2" d="M9.91,57.4a29.72,29.72,0,0,1-7-.76L0,55.86l9.48-9.29a24.75,24.75,0,1,1,12.41,8.58A32.31,32.31,0,0,1,9.91,57.4ZM7,53.81a29.51,29.51,0,0,0,14.14-2.07l.6-.26.62.21a21.45,21.45,0,1,0-9.26-6.14l1.08,1.23Z"/><path class="cls-4" d="M21.93,31.29A2.26,2.26,0,1,1,19.67,29,2.26,2.26,0,0,1,21.93,31.29Z"/><path class="cls-4" d="M31.61,31.29A2.26,2.26,0,1,1,29.35,29,2.26,2.26,0,0,1,31.61,31.29Z"/><path class="cls-4" d="M40.58,31.29A2.26,2.26,0,1,1,38.32,29,2.26,2.26,0,0,1,40.58,31.29Z"/></g></g></svg>