<svg xmlns="http://www.w3.org/2000/svg" viewBox="0 0 114.44 18.57"><defs><style>.cls-1,.cls-4{opacity:0.8;}.cls-1{font-size:10.1px;font-family:Rubik-Medium, Rubik;letter-spacing:0.05em;}.cls-1,.cls-5{fill:#0092ca;}.cls-2{letter-spacing:0.05em;}.cls-3{fill:#22eaaa;}</style></defs><title>Asset 1logo</title><g id="Layer_2" data-name="Layer 2"><g id="Layer_1-2" data-name="Layer 1"><text class="cls-1" transform="translate(22.18 13.09)">shivam dental clinic</text><path class="cls-3" d="M15.55,1.73a3.87,3.87,0,0,0-2.36.42,5.57,5.57,0,0,1-4.72,0,4.62,4.62,0,0,0-2.35-.42A3.05,3.05,0,0,0,4,3.25C2.93,5,2.81,7.81,3.67,10.66a12.64,12.64,0,0,0,4,6.23c.09-3.62,1.09-7.29,3.15-7.29s3.06,3.68,3.15,7.29a12.64,12.64,0,0,0,4-6.23c.86-2.85.73-5.69-.33-7.41A3.07,3.07,0,0,0,15.55,1.73Z"/><g class="cls-4"><path class="cls-5" d="M10.89,17.31c0-4.1-1.14-6.3-1.61-6.3s-1.62,2.2-1.62,6.29a1.21,1.21,0,0,1-.4.92,1.31,1.31,0,0,1-1.59.11A13.87,13.87,0,0,1,.64,11c-1-3.31-.82-6.55.5-8.67A4.57,4.57,0,0,1,4.3.07,5.46,5.46,0,0,1,7.6.62,4,4,0,0,0,11,.62,5.37,5.37,0,0,1,14.25.07,4.56,4.56,0,0,1,17.42,2.3c1.31,2.12,1.5,5.36.5,8.67a13.79,13.79,0,0,1-5,7.36A1.23,1.23,0,0,1,10.89,17.31ZM4.56,1.59A3.13,3.13,0,0,0,2.45,3.11c-1.07,1.72-1.19,4.57-.33,7.42a12.66,12.66,0,0,0,4,6.22c.09-3.62,1.08-7.29,3.15-7.29s3.06,3.68,3.15,7.29a12.66,12.66,0,0,0,4-6.22c.86-2.85.73-5.7-.33-7.42A3.09,3.09,0,0,0,14,1.59,3.87,3.87,0,0,0,11.64,2,5.57,5.57,0,0,1,6.92,2a4.64,4.64,0,0,0-2.36-.42Z"/></g></g></g></svg>