<svg xmlns="http://www.w3.org/2000/svg" viewBox="0 0 182 199.54"><defs><style>.cls-1{fill:#22eaaa;}.cls-2{fill:#9ef4e6;}.cls-3{fill:#439ee9;}</style></defs><title>Asset 1sr1</title><g id="Layer_2" data-name="Layer 2"><g id="BACKGROUND_2" data-name="BACKGROUND 2"><path class="cls-1" d="M42.48,19.73A4,4,0,0,0,37.14,18a41.9,41.9,0,0,0-23.2,37.14,4,4,0,0,0,3.94,4h0a4,4,0,0,0,4-3.94A34,34,0,0,1,40.72,25.07,4,4,0,0,0,42.48,19.73Z"/><path class="cls-1" d="M55.41,13.52c-1.26,0-2.52.08-3.77.21a4,4,0,0,0,.4,7.93l.41,0c1-.1,2-.16,3-.17a4,4,0,1,0-.09-7.95Z"/><path class="cls-2" d="M131,13.27c16.15,29.86,22.54,79.9-25.49,156.6,1.28,11,3.45,20.62,7.19,24.32a3.45,3.45,0,0,0,2.64,1.22c7.71-.07,19.73-24.2,26.85-68.78A88.84,88.84,0,0,1,158,88.31a47.83,47.83,0,0,0,9.24-29.25A48.52,48.52,0,0,0,131,13.27Z"/><path class="cls-3" d="M165.57,16.55A56,56,0,0,0,97.16,7.88a12,12,0,0,1-12.32,0A56.15,56.15,0,0,0,11.08,89.63a81,81,0,0,1,14.63,34.75c3.27,19.4,7.92,37.2,13.1,50.14,6.73,16.84,14,25,22.21,25A11.53,11.53,0,0,0,69.29,196c7.93-8,11-29.06,10.68-72.7a29.11,29.11,0,0,1,11-23.1,29.17,29.17,0,0,1,11,23.1c-.35,43.64,2.75,64.7,10.68,72.7a11.51,11.51,0,0,0,8.27,3.59c8.21,0,15.47-8.18,22.21-25,5.17-12.94,9.82-30.74,13.1-50.14a80.9,80.9,0,0,1,14.63-34.75,56,56,0,0,0-5.35-73.08Zm-1,68.33a88.85,88.85,0,0,0-16.09,38.18c-7.52,44.52-19.76,68.53-27.47,68.53a3.5,3.5,0,0,1-2.63-1.24c-8.84-8.91-8.5-51.14-8.37-67a37.07,37.07,0,0,0-14.1-29.44l-.14-.11a7.54,7.54,0,0,0-9.48,0l-.13.1A37,37,0,0,0,72,123.31c.12,15.9.46,58.13-8.38,67A3.47,3.47,0,0,1,61,191.59c-7.71,0-20-24-27.47-68.53A89,89,0,0,0,17.46,84.88,47.76,47.76,0,0,1,8,55.72a48.21,48.21,0,0,1,72.82-41,20,20,0,0,0,20.46,0,48.2,48.2,0,0,1,63.31,70.17Z"/></g></g></svg>