<svg xmlns="http://www.w3.org/2000/svg" viewBox="0 0 28.87 28.87"><defs><style>.cls-1{fill:#fff;}.cls-2{fill:#faaf40;fill-rule:evenodd;}</style></defs><title>Asset 1facebook-footer</title><g id="Layer_2" data-name="Layer 2"><g id="Layer_1-2" data-name="Layer 1"><rect class="cls-1" width="28.87" height="28.87" rx="6.48" ry="6.48"/><path class="cls-2" d="M16.86,9.29c.49,0,1,0,1.46,0h.2V6.76c-.26,0-.53-.06-.8-.07-.5,0-1-.05-1.5,0a3.69,3.69,0,0,0-2.1.65,3.17,3.17,0,0,0-1.27,2.11,7.73,7.73,0,0,0-.08,1.08c0,.56,0,1.13,0,1.69v.22H10.35v2.81h2.4v7.07h2.93V15.22h2.39c.12-.93.24-1.86.37-2.83H15.66s0-1.39,0-2C15.71,9.56,16.2,9.31,16.86,9.29Z"/></g></g></svg>