<svg xmlns="http://www.w3.org/2000/svg" viewBox="0 0 207.19 260.02"><defs><style>.cls-1{fill:#22eaaa;}.cls-2{fill:#439ee9;}.cls-3{fill:#9ef4e6;}</style></defs><title>Asset 1sr4</title><g id="Layer_2" data-name="Layer 2"><g id="BACKGROUND_2" data-name="BACKGROUND 2"><polygon class="cls-1" points="90.14 228.7 125.53 236.96 126.11 222.2 89.55 213.66 90.14 228.7"/><polygon class="cls-1" points="88.35 182.83 127.29 191.93 127.87 177.16 87.76 167.79 88.35 182.83"/><path class="cls-1" d="M95.09,248.6h25.82c1.17,0,2.25-1.8,3.08-4.07l-33.54-7.79C90.63,241.29,92.65,248.6,95.09,248.6Z"/><polygon class="cls-1" points="89.24 205.76 126.41 214.45 126.99 199.68 88.66 190.73 89.24 205.76"/><path class="cls-1" d="M129.19,143.48a19.27,19.27,0,0,0-19.27-19.19c-4.22,0-4.22,0-4.89,0a19.24,19.24,0,0,0-17.16,13l41.18,9.62Z"/><polygon class="cls-1" points="128.17 169.41 128.75 154.64 86.86 144.86 87.45 159.9 128.17 169.41"/><path class="cls-2" d="M206.07,59.8c-8.37-52.92-59.47-75-102.43-48.42C60.33-15.51,9.54,7.11,1.21,59.8c-5.59,31,8.4,69.58,37.45,91-4.93,44.11,13.32,87.67,28.4,86.41,7,0,8.52.27,11.25-.82,0,.1.2,5.19.2,5.28.14,2,1.58,18.37,12.22,18.37h25.82c5.9,0,9-5,10.56-9.85,6.14,1.44,7-6.18,2.4-7.26l-.83-.19c.12-1.17.08-.71.3-6.35a11.92,11.92,0,0,0,3.87.82c8.31,0,8,0,8,0,14.92,0,32.62-42.92,27.76-86.44a92.72,92.72,0,0,0,23.92-26.24,3.81,3.81,0,0,0-6.5-4,84.86,84.86,0,0,1-23.64,25.32,3.82,3.82,0,0,0-1.61,3.62c5.7,44-12.67,79.31-19.81,80.1,0,0-.35,0-8,0a3.36,3.36,0,0,1-2.44-1.31c5,1.19,6.62-6.28,1.77-7.41l-2.73-.64.58-14.76c5.71,1.33,6.85-6.23,2.15-7.32l-1.85-.44.58-14.76,1.71.4a3.81,3.81,0,1,0,1.73-7.42l-3.14-.74.58-14.76a6.86,6.86,0,0,0,1.7.29,3.81,3.81,0,0,0,.86-7.52l-2.26-.52a54.15,54.15,0,0,0,.12-7.12,26.88,26.88,0,0,0-26.81-24.87h-3.84a26.91,26.91,0,0,0-25.67,18.86L73,138.8a3.81,3.81,0,1,0-1.73,7.42l3.62.85c0,.82-.08-1.29.56,15L73,161.53A3.81,3.81,0,1,0,71.22,169L75.71,170l.59,15a3.8,3.8,0,0,0-1.64,7.43l2,.46.58,15c-6.32-1.48-7.16,6.15-2.53,7.23l2.84.66.31,7.95c0,2.48-.57,5.46-3.54,5.76-7.79,0-8,.07-8.53-.14C57.4,226,41.07,191.27,46.48,149.49a3.78,3.78,0,0,0-1.6-3.62C13.07,123.81-1.53,78.28,14,42.68h0C29.32,7.89,68.28-3,101.53,19.08a3.81,3.81,0,0,0,4.22,0c37.3-24.75,84.24-8.38,92.82,42,2.44,13.47.57,32.05-7,49.06a3.81,3.81,0,1,0,6.95,3.11C206.72,94.92,208.78,74.76,206.07,59.8ZM116.55,252.4H90.73c-2.43,0-4.46-7.26-4.64-11.81l33.54,7.84C118.81,250.7,117.73,252.4,116.55,252.4ZM121.18,241l-35.4-8.26-.58-15,36.55,8.54Zm.87-22.51-37.16-8.69-.59-15,38.33,9Zm.89-22.52L84,186.83l-.59-15,40.11,9.37Zm-22.27-67.62c.68,0,.68,0,4.89,0a19.26,19.26,0,0,1,19.27,19.19l-.13,3.41-41.19-9.62A19.25,19.25,0,0,1,100.67,128.31Zm23.72,30.33-.57,14.77L83.1,163.9l-.59-15Z"/><path class="cls-3" d="M182.56,60c2.18,12,.51,28.58-6.28,43.74-.68,1.51-3.9,7.66-4.88,9.26a75.71,75.71,0,0,1-21.09,22.57,3.41,3.41,0,0,0-1.34,1.91A37.42,37.42,0,0,1,161.36,133a76.67,76.67,0,0,0,17.24-19.67c.88-1.43,4.24-7.83,4.88-9.26,6.79-15.16,8.46-31.73,6.28-43.74-5.4-31.76-27.89-48.37-52.35-47.6C159,15.07,177.69,31.38,182.56,60Z"/></g></g></svg>