<?xml version="1.0" encoding="utf-8"?>
<!-- Generator: Adobe Illustrator 22.0.1, SVG Export Plug-In . SVG Version: 6.00 Build 0)  -->
<svg version="1.1" id="Layer_1" xmlns="http://www.w3.org/2000/svg" xmlns:xlink="http://www.w3.org/1999/xlink" x="0px" y="0px"
	 viewBox="0 0 7.7 15.3" style="enable-background:new 0 0 7.7 15.3;" xml:space="preserve">
<style type="text/css">
	.st0{fill:#FFFFFF;}
</style>
<title>Asset 1</title>
<g id="Layer_2_1_">
	<g id="BACKGROUND_2">
		<path class="st0" d="M3.3,0.1l-3,3C0,3.4-0.1,3.9,0.2,4.2c0.3,0.3,0.8,0.3,1.1,0c0,0,0,0,0,0l1.4-1.3c0.1-0.1,0.2-0.1,0.3,0
			c0.1,0,0.1,0.1,0.1,0.2V8c0,0.4,0.3,0.8,0.7,0.8c0.4,0,0.8-0.3,0.8-0.7c0,0,0,0,0,0V3c0-0.1,0.1-0.2,0.2-0.3c0.1,0,0.1,0,0.2,0.1
			l1.3,1.4c0.3,0.3,0.8,0.3,1.1,0.1c0.3-0.3,0.3-0.7,0-1.1l-3-3C4.2-0.1,3.7-0.2,3.3,0.1C3.3,0.1,3.3,0.1,3.3,0.1z"/>
		<path class="st0" d="M3.1,10.9v0.9c0,0.4,0.4,0.7,0.9,0.7c0.4,0,0.6-0.3,0.7-0.7v-0.9c0-0.4-0.4-0.7-0.9-0.7
			C3.4,10.2,3.1,10.5,3.1,10.9z"/>
		<path class="st0" d="M3.1,14.4L3.1,14.4c0,0.5,0.3,0.9,0.7,0.9c0.4,0,0.8-0.3,0.9-0.7c0-0.1,0-0.1,0-0.2v-0.1
			c0-0.4-0.3-0.8-0.7-0.9s-0.8,0.3-0.9,0.7C3.1,14.3,3.1,14.3,3.1,14.4z"/>
	</g>
</g>
</svg>
